<?xml version="1.0" standalone="no"?>
<!DOCTYPE svg PUBLIC "-//W3C//DTD SVG 20010904//EN"
 "http://www.w3.org/TR/2001/REC-SVG-20010904/DTD/svg10.dtd">
<svg version="1.0" xmlns="http://www.w3.org/2000/svg"
 width="100.000000pt" height="92.000000pt" viewBox="0 0 100.000000 92.000000"
 preserveAspectRatio="xMidYMid meet">

<g transform="translate(0.000000,92.000000) scale(0.100000,-0.100000)"
fill="#000000" stroke="none">
<path d="M194 910 c-66 -21 -127 -72 -159 -134 -26 -53 -30 -70 -30 -145 0
-101 19 -163 74 -248 77 -119 185 -224 339 -330 l82 -57 83 57 c145 100 245
195 326 311 137 197 115 430 -50 521 -47 26 -64 30 -134 30 -94 0 -144 -22
-194 -82 l-31 -38 -31 38 c-17 21 -50 47 -72 59 -47 24 -153 33 -203 18z"/>
</g>
</svg>
